<?xml version="1.0" encoding="utf-8"?>
<!-- Generator: Adobe Illustrator 16.0.3, SVG Export Plug-In . SVG Version: 6.00 Build 0)  -->
<!DOCTYPE svg PUBLIC "-//W3C//DTD SVG 1.1//EN" "http://www.w3.org/Graphics/SVG/1.1/DTD/svg11.dtd">
<svg version="1.1" xmlns="http://www.w3.org/2000/svg" xmlns:xlink="http://www.w3.org/1999/xlink" x="0px" y="0px"
	 width="595.28px" height="595.28px" viewBox="0 0 595.28 595.28" enable-background="new 0 0 595.28 595.28"
	 xml:space="preserve">
<g id="GbCalendarWindow">
	<path fill="#F15A24" d="M559.28,0H36C16.118,0,0,16.218,0,36.224v522.834c0,20.004,16.118,36.223,36,36.223h523.28
		c19.882,0,36-16.219,36-36.223V36.224C595.28,16.218,579.162,0,559.28,0z M543.974,511.614c0,19.882-16.118,36-36,36H87.307
		c-19.882,0-36-16.118-36-36V184.281c0-19.882,16.118-36,36-36h420.667c19.882,0,36,16.118,36,36V511.614z"/>
</g>
	<g id="GutenBerg">
	<g>
		<g>
			<path fill="#ED1C24" d="M302.841,358.516c-3.57-2.744-9.54-4.117-17.908-4.117h-9.88c-4.667,0-8.613,0.447-11.836,1.338
				c-3.226,0.895-5.799,2.506-7.719,4.838c-1.923,2.335-3.329,5.558-4.22,9.674c-0.895,4.117-1.338,9.401-1.338,15.85v17.291
				c0,6.451,0.412,11.803,1.235,16.055c0.823,4.255,2.193,7.688,4.117,10.292c1.92,2.608,4.493,4.461,7.719,5.558
				c3.223,1.101,7.237,1.646,12.042,1.646h9.88c5.625,0,10.086-0.341,13.379-1.028c3.293-0.686,5.764-1.817,7.411-3.396
				c1.646-1.576,2.708-3.531,3.19-5.867c0.479-2.331,0.72-5.146,0.72-8.438v-8.439h-25.112v-27.788h60.723v36.228
				c0,9.88-0.721,18.011-2.162,24.392s-4.255,11.459-8.439,15.231c-4.188,3.776-10.086,6.417-17.702,7.925
				c-7.616,1.512-17.599,2.265-29.949,2.265h-15.644c-10.842,0-19.831-0.788-26.965-2.367c-7.137-1.576-12.865-4.561-17.188-8.954
				c-4.322-4.39-7.378-10.565-9.16-18.525c-1.785-7.957-2.676-18.319-2.676-31.081v-24.289c0-12.212,0.823-22.195,2.47-29.95
				c1.646-7.751,4.425-13.791,8.336-18.113c3.911-4.323,9.192-7.272,15.85-8.852c6.654-1.575,15.058-2.367,25.215-2.367h22.231
				c10.977,0,19.998,0.756,27.067,2.265c7.066,1.512,12.659,4.014,16.776,7.513c4.117,3.5,7.031,8.166,8.748,13.997
				c1.714,5.835,2.779,13.142,3.191,21.922h-36.022C308.533,364.829,306.408,361.262,302.841,358.516z"/>
			<path fill="#ED1C24" d="M451.867,327.434c5.076,1.512,9.125,3.809,12.145,6.896c3.018,3.088,5.146,7.034,6.381,11.836
				c1.236,4.805,1.854,10.498,1.854,17.085c0,5.628-0.242,10.121-0.721,13.482c-0.482,3.364-1.203,6.04-2.162,8.027
				c-0.961,1.991-2.16,3.499-3.602,4.528s-3.123,1.956-5.043,2.779c2.744,0.411,5.281,1.167,7.615,2.264
				c2.332,1.101,4.324,2.882,5.971,5.352c1.646,2.471,2.949,5.835,3.91,10.087c0.959,4.255,1.441,9.674,1.441,16.261
				c0,8.099-0.689,14.82-2.059,20.172c-1.373,5.353-3.602,9.643-6.689,12.865c-3.088,3.226-7.102,5.525-12.043,6.896
				c-4.939,1.374-10.979,2.059-18.113,2.059h-78.218V325.17h70.191C440.408,325.17,446.789,325.926,451.867,327.434z
				 M426.549,378.894c4.117,0,7.066-1.029,8.852-3.088c1.781-2.059,2.676-5.213,2.676-9.469c0-3.979-0.895-7.102-2.676-9.365
				c-1.785-2.265-4.734-3.396-8.852-3.396h-29.64v25.318H426.549z M431.49,439.41c4.252,0,7.615-1.164,10.086-3.499
				c2.469-2.332,3.705-6.517,3.705-12.557c0-5.764-1.271-9.845-3.809-12.247c-2.541-2.399-5.867-3.603-9.982-3.603h-34.582v31.905
				H431.49z"/>
		</g>
	</g>
</g>
</svg>
